<mxfile host="app.diagrams.net" agent="Mozilla/5.0 (Windows NT 10.0; Win64; x64) AppleWebKit/537.36 (KHTML, like Gecko) Chrome/141.0.0.0 Safari/537.36 Edg/141.0.0.0" version="28.2.5">
  <diagram name="1 oldal" id="FHBwQVQ1e6jIngk-vGOI">
    <mxGraphModel dx="2009" dy="655" grid="1" gridSize="10" guides="1" tooltips="1" connect="1" arrows="1" fold="1" page="1" pageScale="1" pageWidth="827" pageHeight="1169" math="0" shadow="0">
      <root>
        <mxCell id="0" />
        <mxCell id="1" parent="0" />
        <mxCell id="lZBWsfQ4nYBCE2CX1J30-1" value="GJWXEU_Vendéglátás" style="ellipse;whiteSpace=wrap;html=1;" vertex="1" parent="1">
          <mxGeometry x="334" y="20" width="160" height="80" as="geometry" />
        </mxCell>
        <mxCell id="lZBWsfQ4nYBCE2CX1J30-2" value="Étterem" style="ellipse;whiteSpace=wrap;html=1;" vertex="1" parent="1">
          <mxGeometry x="-288" y="170" width="90" height="50" as="geometry" />
        </mxCell>
        <mxCell id="lZBWsfQ4nYBCE2CX1J30-3" value="Főszakács" style="ellipse;whiteSpace=wrap;html=1;" vertex="1" parent="1">
          <mxGeometry x="12" y="170" width="90" height="50" as="geometry" />
        </mxCell>
        <mxCell id="lZBWsfQ4nYBCE2CX1J30-8" value="Szakács" style="ellipse;whiteSpace=wrap;html=1;" vertex="1" parent="1">
          <mxGeometry x="255" y="170" width="90" height="50" as="geometry" />
        </mxCell>
        <mxCell id="lZBWsfQ4nYBCE2CX1J30-9" value="Gyakornok" style="ellipse;whiteSpace=wrap;html=1;" vertex="1" parent="1">
          <mxGeometry x="485" y="170" width="90" height="50" as="geometry" />
        </mxCell>
        <mxCell id="lZBWsfQ4nYBCE2CX1J30-10" value="Vendég" style="ellipse;whiteSpace=wrap;html=1;" vertex="1" parent="1">
          <mxGeometry x="667" y="170" width="90" height="50" as="geometry" />
        </mxCell>
        <mxCell id="lZBWsfQ4nYBCE2CX1J30-11" value="Rendelés" style="ellipse;whiteSpace=wrap;html=1;" vertex="1" parent="1">
          <mxGeometry x="865" y="170" width="90" height="50" as="geometry" />
        </mxCell>
        <mxCell id="lZBWsfQ4nYBCE2CX1J30-12" value="" style="ellipse;whiteSpace=wrap;html=1;fillColor=none;" vertex="1" parent="1">
          <mxGeometry x="-293" y="165" width="100" height="60" as="geometry" />
        </mxCell>
        <mxCell id="lZBWsfQ4nYBCE2CX1J30-13" value="" style="ellipse;whiteSpace=wrap;html=1;fillColor=none;" vertex="1" parent="1">
          <mxGeometry x="7" y="165" width="100" height="60" as="geometry" />
        </mxCell>
        <mxCell id="lZBWsfQ4nYBCE2CX1J30-14" value="" style="ellipse;whiteSpace=wrap;html=1;fillColor=none;" vertex="1" parent="1">
          <mxGeometry x="250" y="165" width="100" height="60" as="geometry" />
        </mxCell>
        <mxCell id="lZBWsfQ4nYBCE2CX1J30-15" value="" style="ellipse;whiteSpace=wrap;html=1;fillColor=none;" vertex="1" parent="1">
          <mxGeometry x="480" y="165" width="100" height="60" as="geometry" />
        </mxCell>
        <mxCell id="lZBWsfQ4nYBCE2CX1J30-16" value="" style="ellipse;whiteSpace=wrap;html=1;fillColor=none;" vertex="1" parent="1">
          <mxGeometry x="662" y="165" width="100" height="60" as="geometry" />
        </mxCell>
        <mxCell id="lZBWsfQ4nYBCE2CX1J30-17" value="" style="ellipse;whiteSpace=wrap;html=1;fillColor=none;" vertex="1" parent="1">
          <mxGeometry x="860" y="165" width="100" height="60" as="geometry" />
        </mxCell>
        <mxCell id="lZBWsfQ4nYBCE2CX1J30-19" value="Név" style="ellipse;whiteSpace=wrap;html=1;" vertex="1" parent="1">
          <mxGeometry x="-353" y="280" width="60" height="40" as="geometry" />
        </mxCell>
        <mxCell id="lZBWsfQ4nYBCE2CX1J30-20" value="Cím" style="ellipse;whiteSpace=wrap;html=1;" vertex="1" parent="1">
          <mxGeometry x="-273" y="280" width="60" height="40" as="geometry" />
        </mxCell>
        <mxCell id="lZBWsfQ4nYBCE2CX1J30-21" value="Csillag" style="ellipse;whiteSpace=wrap;html=1;" vertex="1" parent="1">
          <mxGeometry x="-193" y="280" width="60" height="40" as="geometry" />
        </mxCell>
        <mxCell id="lZBWsfQ4nYBCE2CX1J30-23" value="" style="endArrow=none;html=1;rounded=0;exitX=0.5;exitY=0;exitDx=0;exitDy=0;" edge="1" parent="1" source="lZBWsfQ4nYBCE2CX1J30-19">
          <mxGeometry width="50" height="50" relative="1" as="geometry">
            <mxPoint x="-293" y="275" as="sourcePoint" />
            <mxPoint x="-243" y="225" as="targetPoint" />
          </mxGeometry>
        </mxCell>
        <mxCell id="lZBWsfQ4nYBCE2CX1J30-24" value="" style="endArrow=none;html=1;rounded=0;exitX=0.5;exitY=0;exitDx=0;exitDy=0;entryX=0.5;entryY=0;entryDx=0;entryDy=0;" edge="1" parent="1">
          <mxGeometry width="50" height="50" relative="1" as="geometry">
            <mxPoint x="-243" y="225" as="sourcePoint" />
            <mxPoint x="-163" y="280" as="targetPoint" />
          </mxGeometry>
        </mxCell>
        <mxCell id="lZBWsfQ4nYBCE2CX1J30-25" value="" style="endArrow=none;html=1;rounded=0;exitX=0.5;exitY=1;exitDx=0;exitDy=0;entryX=0.5;entryY=0;entryDx=0;entryDy=0;" edge="1" parent="1" source="lZBWsfQ4nYBCE2CX1J30-12" target="lZBWsfQ4nYBCE2CX1J30-20">
          <mxGeometry width="50" height="50" relative="1" as="geometry">
            <mxPoint x="-153" y="325" as="sourcePoint" />
            <mxPoint x="-73" y="270" as="targetPoint" />
          </mxGeometry>
        </mxCell>
        <mxCell id="lZBWsfQ4nYBCE2CX1J30-26" value="&lt;u&gt;Ekod&lt;/u&gt;" style="rhombus;whiteSpace=wrap;html=1;" vertex="1" parent="1">
          <mxGeometry x="-443" y="210" width="60" height="60" as="geometry" />
        </mxCell>
        <mxCell id="lZBWsfQ4nYBCE2CX1J30-27" value="" style="endArrow=none;html=1;rounded=0;exitX=1;exitY=0.5;exitDx=0;exitDy=0;entryX=0;entryY=0.5;entryDx=0;entryDy=0;" edge="1" parent="1" source="lZBWsfQ4nYBCE2CX1J30-26" target="lZBWsfQ4nYBCE2CX1J30-12">
          <mxGeometry width="50" height="50" relative="1" as="geometry">
            <mxPoint x="-293" y="305" as="sourcePoint" />
            <mxPoint x="-213" y="250" as="targetPoint" />
          </mxGeometry>
        </mxCell>
        <mxCell id="lZBWsfQ4nYBCE2CX1J30-28" value="Utca" style="ellipse;whiteSpace=wrap;html=1;" vertex="1" parent="1">
          <mxGeometry x="-273" y="430" width="60" height="40" as="geometry" />
        </mxCell>
        <mxCell id="lZBWsfQ4nYBCE2CX1J30-29" value="Házszám" style="ellipse;whiteSpace=wrap;html=1;" vertex="1" parent="1">
          <mxGeometry x="-203" y="430" width="60" height="40" as="geometry" />
        </mxCell>
        <mxCell id="lZBWsfQ4nYBCE2CX1J30-30" value="Város" style="ellipse;whiteSpace=wrap;html=1;" vertex="1" parent="1">
          <mxGeometry x="-343" y="430" width="60" height="40" as="geometry" />
        </mxCell>
        <mxCell id="lZBWsfQ4nYBCE2CX1J30-31" value="" style="endArrow=none;html=1;rounded=0;exitX=0.5;exitY=0;exitDx=0;exitDy=0;" edge="1" parent="1" source="lZBWsfQ4nYBCE2CX1J30-30">
          <mxGeometry width="50" height="50" relative="1" as="geometry">
            <mxPoint x="-293" y="370" as="sourcePoint" />
            <mxPoint x="-243" y="320" as="targetPoint" />
          </mxGeometry>
        </mxCell>
        <mxCell id="lZBWsfQ4nYBCE2CX1J30-32" value="" style="endArrow=none;html=1;rounded=0;exitX=0.5;exitY=0;exitDx=0;exitDy=0;" edge="1" parent="1" source="lZBWsfQ4nYBCE2CX1J30-28">
          <mxGeometry width="50" height="50" relative="1" as="geometry">
            <mxPoint x="-293" y="510" as="sourcePoint" />
            <mxPoint x="-243" y="320" as="targetPoint" />
          </mxGeometry>
        </mxCell>
        <mxCell id="lZBWsfQ4nYBCE2CX1J30-33" value="" style="endArrow=none;html=1;rounded=0;exitX=0.5;exitY=0;exitDx=0;exitDy=0;entryX=0.5;entryY=1;entryDx=0;entryDy=0;" edge="1" parent="1" source="lZBWsfQ4nYBCE2CX1J30-29" target="lZBWsfQ4nYBCE2CX1J30-20">
          <mxGeometry width="50" height="50" relative="1" as="geometry">
            <mxPoint x="-173" y="530" as="sourcePoint" />
            <mxPoint x="-103" y="420" as="targetPoint" />
          </mxGeometry>
        </mxCell>
        <mxCell id="lZBWsfQ4nYBCE2CX1J30-34" value="" style="rounded=0;whiteSpace=wrap;html=1;" vertex="1" parent="1">
          <mxGeometry x="-343" y="340" width="40" height="50" as="geometry" />
        </mxCell>
        <mxCell id="lZBWsfQ4nYBCE2CX1J30-35" value="" style="rounded=0;whiteSpace=wrap;html=1;" vertex="1" parent="1">
          <mxGeometry x="-183" y="340" width="40" height="50" as="geometry" />
        </mxCell>
        <mxCell id="lZBWsfQ4nYBCE2CX1J30-36" value="" style="endArrow=none;html=1;rounded=0;entryX=0.5;entryY=1;entryDx=0;entryDy=0;exitX=0.5;exitY=0;exitDx=0;exitDy=0;" edge="1" parent="1" source="lZBWsfQ4nYBCE2CX1J30-35">
          <mxGeometry width="50" height="50" relative="1" as="geometry">
            <mxPoint x="-303" y="300" as="sourcePoint" />
            <mxPoint x="-163" y="320" as="targetPoint" />
          </mxGeometry>
        </mxCell>
        <mxCell id="lZBWsfQ4nYBCE2CX1J30-37" value="" style="endArrow=none;html=1;rounded=0;entryX=0.5;entryY=1;entryDx=0;entryDy=0;exitX=0.5;exitY=0;exitDx=0;exitDy=0;" edge="1" parent="1" source="lZBWsfQ4nYBCE2CX1J30-34" target="lZBWsfQ4nYBCE2CX1J30-19">
          <mxGeometry width="50" height="50" relative="1" as="geometry">
            <mxPoint x="-303" y="300" as="sourcePoint" />
            <mxPoint x="-253" y="250" as="targetPoint" />
          </mxGeometry>
        </mxCell>
        <mxCell id="lZBWsfQ4nYBCE2CX1J30-39" value="" style="endArrow=none;html=1;rounded=0;exitX=0.5;exitY=0;exitDx=0;exitDy=0;entryX=0.5;entryY=1;entryDx=0;entryDy=0;" edge="1" parent="1" source="lZBWsfQ4nYBCE2CX1J30-12" target="lZBWsfQ4nYBCE2CX1J30-1">
          <mxGeometry width="50" height="50" relative="1" as="geometry">
            <mxPoint x="410" y="110" as="sourcePoint" />
            <mxPoint x="460" y="60" as="targetPoint" />
          </mxGeometry>
        </mxCell>
        <mxCell id="lZBWsfQ4nYBCE2CX1J30-40" value="" style="endArrow=none;html=1;rounded=0;exitX=0.5;exitY=0;exitDx=0;exitDy=0;" edge="1" parent="1" source="lZBWsfQ4nYBCE2CX1J30-13">
          <mxGeometry width="50" height="50" relative="1" as="geometry">
            <mxPoint x="364" y="150" as="sourcePoint" />
            <mxPoint x="414" y="100" as="targetPoint" />
          </mxGeometry>
        </mxCell>
        <mxCell id="lZBWsfQ4nYBCE2CX1J30-41" value="" style="endArrow=none;html=1;rounded=0;exitX=0.5;exitY=0;exitDx=0;exitDy=0;" edge="1" parent="1" source="lZBWsfQ4nYBCE2CX1J30-14">
          <mxGeometry width="50" height="50" relative="1" as="geometry">
            <mxPoint x="360" y="150" as="sourcePoint" />
            <mxPoint x="410" y="100" as="targetPoint" />
          </mxGeometry>
        </mxCell>
        <mxCell id="lZBWsfQ4nYBCE2CX1J30-42" value="" style="endArrow=none;html=1;rounded=0;exitX=0.5;exitY=0;exitDx=0;exitDy=0;" edge="1" parent="1" source="lZBWsfQ4nYBCE2CX1J30-15">
          <mxGeometry width="50" height="50" relative="1" as="geometry">
            <mxPoint x="360" y="150" as="sourcePoint" />
            <mxPoint x="410" y="100" as="targetPoint" />
          </mxGeometry>
        </mxCell>
        <mxCell id="lZBWsfQ4nYBCE2CX1J30-43" value="" style="endArrow=none;html=1;rounded=0;exitX=0.5;exitY=0;exitDx=0;exitDy=0;" edge="1" parent="1" source="lZBWsfQ4nYBCE2CX1J30-16">
          <mxGeometry width="50" height="50" relative="1" as="geometry">
            <mxPoint x="360" y="150" as="sourcePoint" />
            <mxPoint x="410" y="100" as="targetPoint" />
          </mxGeometry>
        </mxCell>
        <mxCell id="lZBWsfQ4nYBCE2CX1J30-44" value="" style="endArrow=none;html=1;rounded=0;exitX=0.5;exitY=0;exitDx=0;exitDy=0;" edge="1" parent="1" source="lZBWsfQ4nYBCE2CX1J30-17">
          <mxGeometry width="50" height="50" relative="1" as="geometry">
            <mxPoint x="360" y="150" as="sourcePoint" />
            <mxPoint x="410" y="100" as="targetPoint" />
          </mxGeometry>
        </mxCell>
        <mxCell id="lZBWsfQ4nYBCE2CX1J30-46" value="Életkor" style="ellipse;whiteSpace=wrap;html=1;" vertex="1" parent="1">
          <mxGeometry x="27" y="280" width="60" height="40" as="geometry" />
        </mxCell>
        <mxCell id="lZBWsfQ4nYBCE2CX1J30-47" value="Név" style="ellipse;whiteSpace=wrap;html=1;" vertex="1" parent="1">
          <mxGeometry x="-53" y="280" width="60" height="40" as="geometry" />
        </mxCell>
        <mxCell id="lZBWsfQ4nYBCE2CX1J30-48" value="Végzettség" style="ellipse;whiteSpace=wrap;html=1;" vertex="1" parent="1">
          <mxGeometry x="107" y="280" width="70" height="40" as="geometry" />
        </mxCell>
        <mxCell id="lZBWsfQ4nYBCE2CX1J30-49" value="" style="ellipse;whiteSpace=wrap;html=1;fillColor=none;" vertex="1" parent="1">
          <mxGeometry x="102" y="275" width="80" height="50" as="geometry" />
        </mxCell>
        <mxCell id="lZBWsfQ4nYBCE2CX1J30-50" value="" style="rounded=0;whiteSpace=wrap;html=1;" vertex="1" parent="1">
          <mxGeometry x="-43" y="340" width="40" height="50" as="geometry" />
        </mxCell>
        <mxCell id="lZBWsfQ4nYBCE2CX1J30-51" value="" style="rounded=0;whiteSpace=wrap;html=1;" vertex="1" parent="1">
          <mxGeometry x="37" y="340" width="40" height="50" as="geometry" />
        </mxCell>
        <mxCell id="lZBWsfQ4nYBCE2CX1J30-52" value="" style="rounded=0;whiteSpace=wrap;html=1;" vertex="1" parent="1">
          <mxGeometry x="122" y="340" width="40" height="50" as="geometry" />
        </mxCell>
        <mxCell id="lZBWsfQ4nYBCE2CX1J30-53" value="" style="endArrow=none;html=1;rounded=0;exitX=0.5;exitY=0;exitDx=0;exitDy=0;" edge="1" parent="1" source="lZBWsfQ4nYBCE2CX1J30-50">
          <mxGeometry width="50" height="50" relative="1" as="geometry">
            <mxPoint x="-73" y="370" as="sourcePoint" />
            <mxPoint x="-23" y="320" as="targetPoint" />
          </mxGeometry>
        </mxCell>
        <mxCell id="lZBWsfQ4nYBCE2CX1J30-55" value="" style="endArrow=none;html=1;rounded=0;exitX=0.5;exitY=0;exitDx=0;exitDy=0;" edge="1" parent="1" source="lZBWsfQ4nYBCE2CX1J30-51">
          <mxGeometry width="50" height="50" relative="1" as="geometry">
            <mxPoint x="7" y="370" as="sourcePoint" />
            <mxPoint x="57" y="320" as="targetPoint" />
          </mxGeometry>
        </mxCell>
        <mxCell id="lZBWsfQ4nYBCE2CX1J30-56" value="" style="endArrow=none;html=1;rounded=0;entryX=0.5;entryY=1;entryDx=0;entryDy=0;exitX=0.5;exitY=0;exitDx=0;exitDy=0;" edge="1" parent="1" source="lZBWsfQ4nYBCE2CX1J30-52" target="lZBWsfQ4nYBCE2CX1J30-49">
          <mxGeometry width="50" height="50" relative="1" as="geometry">
            <mxPoint x="97" y="380" as="sourcePoint" />
            <mxPoint x="147" y="330" as="targetPoint" />
          </mxGeometry>
        </mxCell>
        <mxCell id="lZBWsfQ4nYBCE2CX1J30-57" value="&lt;u&gt;Fkod&lt;/u&gt;" style="rhombus;whiteSpace=wrap;html=1;" vertex="1" parent="1">
          <mxGeometry x="-113" y="210" width="60" height="60" as="geometry" />
        </mxCell>
        <mxCell id="lZBWsfQ4nYBCE2CX1J30-58" value="" style="endArrow=none;html=1;rounded=0;entryX=0;entryY=0.5;entryDx=0;entryDy=0;" edge="1" parent="1" target="lZBWsfQ4nYBCE2CX1J30-13">
          <mxGeometry width="50" height="50" relative="1" as="geometry">
            <mxPoint x="-53" y="240" as="sourcePoint" />
            <mxPoint x="-3" y="190" as="targetPoint" />
          </mxGeometry>
        </mxCell>
        <mxCell id="lZBWsfQ4nYBCE2CX1J30-59" value="" style="endArrow=none;html=1;rounded=0;entryX=0.5;entryY=1;entryDx=0;entryDy=0;exitX=0.5;exitY=0;exitDx=0;exitDy=0;" edge="1" parent="1" source="lZBWsfQ4nYBCE2CX1J30-47" target="lZBWsfQ4nYBCE2CX1J30-13">
          <mxGeometry width="50" height="50" relative="1" as="geometry">
            <mxPoint x="7" y="280" as="sourcePoint" />
            <mxPoint x="57" y="230" as="targetPoint" />
          </mxGeometry>
        </mxCell>
        <mxCell id="lZBWsfQ4nYBCE2CX1J30-60" value="" style="endArrow=none;html=1;rounded=0;entryX=0.5;entryY=1;entryDx=0;entryDy=0;exitX=0.5;exitY=0;exitDx=0;exitDy=0;" edge="1" parent="1" target="lZBWsfQ4nYBCE2CX1J30-13">
          <mxGeometry width="50" height="50" relative="1" as="geometry">
            <mxPoint x="57" y="280" as="sourcePoint" />
            <mxPoint x="137" y="225" as="targetPoint" />
          </mxGeometry>
        </mxCell>
        <mxCell id="lZBWsfQ4nYBCE2CX1J30-61" value="" style="endArrow=none;html=1;rounded=0;entryX=0.5;entryY=1;entryDx=0;entryDy=0;exitX=0.5;exitY=0;exitDx=0;exitDy=0;" edge="1" parent="1" source="lZBWsfQ4nYBCE2CX1J30-49" target="lZBWsfQ4nYBCE2CX1J30-13">
          <mxGeometry width="50" height="50" relative="1" as="geometry">
            <mxPoint x="87" y="285" as="sourcePoint" />
            <mxPoint x="87" y="230" as="targetPoint" />
          </mxGeometry>
        </mxCell>
        <mxCell id="lZBWsfQ4nYBCE2CX1J30-62" value="E_F" style="rhombus;whiteSpace=wrap;html=1;" vertex="1" parent="1">
          <mxGeometry x="187" y="210" width="60" height="60" as="geometry" />
        </mxCell>
        <mxCell id="lZBWsfQ4nYBCE2CX1J30-63" value="" style="endArrow=none;html=1;rounded=0;exitX=1;exitY=0.5;exitDx=0;exitDy=0;" edge="1" parent="1" source="lZBWsfQ4nYBCE2CX1J30-13">
          <mxGeometry width="50" height="50" relative="1" as="geometry">
            <mxPoint x="137" y="290" as="sourcePoint" />
            <mxPoint x="187" y="240" as="targetPoint" />
          </mxGeometry>
        </mxCell>
        <mxCell id="lZBWsfQ4nYBCE2CX1J30-64" value="" style="endArrow=none;dashed=1;html=1;rounded=0;" edge="1" parent="1">
          <mxGeometry width="50" height="50" relative="1" as="geometry">
            <mxPoint x="216.8" y="480" as="sourcePoint" />
            <mxPoint x="216.8" y="270" as="targetPoint" />
          </mxGeometry>
        </mxCell>
        <mxCell id="lZBWsfQ4nYBCE2CX1J30-65" value="" style="endArrow=none;dashed=1;html=1;rounded=0;" edge="1" parent="1">
          <mxGeometry width="50" height="50" relative="1" as="geometry">
            <mxPoint x="-410" y="480" as="sourcePoint" />
            <mxPoint x="220" y="480" as="targetPoint" />
          </mxGeometry>
        </mxCell>
        <mxCell id="lZBWsfQ4nYBCE2CX1J30-66" value="" style="endArrow=none;dashed=1;html=1;rounded=0;" edge="1" parent="1">
          <mxGeometry width="50" height="50" relative="1" as="geometry">
            <mxPoint x="-414" y="480" as="sourcePoint" />
            <mxPoint x="-414" y="268.82" as="targetPoint" />
          </mxGeometry>
        </mxCell>
        <mxCell id="lZBWsfQ4nYBCE2CX1J30-67" value="" style="endArrow=none;dashed=1;html=1;rounded=0;" edge="1" parent="1">
          <mxGeometry width="50" height="50" relative="1" as="geometry">
            <mxPoint x="207" y="248" as="sourcePoint" />
            <mxPoint x="230" y="248" as="targetPoint" />
          </mxGeometry>
        </mxCell>
      </root>
    </mxGraphModel>
  </diagram>
</mxfile>
